# xmcd
#
# Track frame offsets: 
#        150
#        18912
#        31257
#        45047
#        57160
#        68137
#        87060
#        104127
#        117727
#        136380
#        155857
#        166990
#        178197
#        189322
#        204502
#        223752
#        243040
#        259962
#
# Disc length: 3663 seconds
#
# Revision: 1
# Processed by: cddbd v1.5.2PL0 Copyright (c) Steve Scherf et al.
# Submitted via: ExactAudioCopy v1.0b1
#
DISCID=fd0e4d12
DTITLE=鄧麗君 - 鄧麗君懷念精選專輯CD4
DYEAR=1900
DGENRE=Country
TTITLE0=永源愛我
TTITLE1=黃昏裡
TTITLE2=眼淚中的愛
TTITLE3=有人呼喚你
TTITLE4=別來找我
TTITLE5=天外天上無涯
TTITLE6=雪地上的回憶
TTITLE7=不論今宵或明天
TTITLE8=不著痕跡
TTITLE9=相愛如往昔
TTITLE10=沉醉在羞愧李
TTITLE11=只有我和你
TTITLE12=不怕不能再見
TTITLE13=你在我心中
TTITLE14=使愛更美好
TTITLE15=多情的玫瑰
TTITLE16=良夜
TTITLE17=別離
EXTD=
EXTT0=
EXTT1=
EXTT2=
EXTT3=
EXTT4=
EXTT5=
EXTT6=
EXTT7=
EXTT8=
EXTT9=
EXTT10=
EXTT11=
EXTT12=
EXTT13=
EXTT14=
EXTT15=
EXTT16=
EXTT17=
PLAYORDER=
